<svg width="40.000000" height="40.000000" viewBox="0 0 40 40" fill="none" xmlns="http://www.w3.org/2000/svg" xmlns:xlink="http://www.w3.org/1999/xlink">
	<desc>
			Created with Pixso.
	</desc>
	<defs/>
	<path id="Vector" d="M13.33 22.5L26.66 22.5M13.33 14.16L20 14.16" stroke="#737373" stroke-opacity="1.000000" stroke-width="2.500000" stroke-linejoin="round" stroke-linecap="round"/>
	<path id="Vector" d="M10.16 31.66C7.99 31.45 6.37 30.8 5.28 29.71C3.33 27.76 3.33 24.61 3.33 18.33L3.33 17.5C3.33 11.21 3.33 8.07 5.28 6.11C7.23 4.16 10.38 4.16 16.66 4.16L23.33 4.16C29.61 4.16 32.76 4.16 34.71 6.11C36.66 8.07 36.66 11.21 36.66 17.5L36.66 18.33C36.66 24.61 36.66 27.76 34.71 29.71C32.76 31.66 29.61 31.66 23.33 31.66C22.39 31.68 21.65 31.75 20.92 31.92C18.92 32.38 17.07 33.4 15.24 34.29C12.64 35.56 11.34 36.2 10.52 35.6C8.96 34.44 10.49 30.83 10.83 29.16" stroke="#737373" stroke-opacity="1.000000" stroke-width="2.500000" stroke-linecap="round"/>
</svg>
