<svg width="40.000000" height="40.000000" viewBox="0 0 40 40" fill="none" xmlns="http://www.w3.org/2000/svg" xmlns:xlink="http://www.w3.org/1999/xlink">
	<desc>
			Created with Pixso.
	</desc>
	<defs/>
	<path id="Vector" d="M34.99 15.21C34.99 13.32 34.99 12.37 34.53 11.58C34.07 10.78 33.25 10.32 31.61 9.39L23.24 4.67C21.65 3.78 20.86 3.33 20 3.33C19.13 3.33 18.34 3.78 16.76 4.67L8.38 9.39C6.74 10.32 5.92 10.78 5.46 11.58C5 12.37 5 13.32 5 15.21L5 23.13C5 29.51 5 32.7 6.95 34.68C8.9 36.66 12.04 36.66 18.33 36.66L21.66 36.66C27.95 36.66 31.09 36.66 33.04 34.68C35 32.7 35 29.51 35 23.13L34.99 15.21Z" stroke="#737373" stroke-opacity="1.000000" stroke-width="1.500000"/>
	<path id="Vector" d="M16.66 21.66L13.33 21.66M26.66 21.66L23.33 21.66M16.66 15L13.33 15M16.66 28.33L13.33 28.33M26.66 15L23.33 15M26.66 28.33L23.33 28.33" stroke="#737373" stroke-opacity="1.000000" stroke-width="1.500000" stroke-linecap="round"/>
</svg>
