<svg width="24.007996" height="24.007812" viewBox="0 0 24.008 24.0078" fill="none" xmlns="http://www.w3.org/2000/svg" xmlns:xlink="http://www.w3.org/1999/xlink">
	<desc>
			Created with Pixso.
	</desc>
	<defs/>
	<path id="Vector" d="M8 16L15.26 16C19.75 16 20.43 13.18 21.26 9.07C21.5 7.89 21.62 7.29 21.33 6.9C21.05 6.5 20.5 6.5 19.39 6.5L6 6.5" stroke="#737373" stroke-opacity="1.000000" stroke-width="1.500000" stroke-linecap="round"/>
	<path id="Vector" d="M8 16L5.38 3.51C5.16 2.62 4.36 2 3.44 2L2.5 2" stroke="#737373" stroke-opacity="1.000000" stroke-width="1.500000" stroke-linecap="round"/>
	<path id="Vector" d="M8.88 16L8.47 16C7.1 16 6 17.15 6 18.57C6 18.81 6.18 19 6.41 19L17.5 19" stroke="#737373" stroke-opacity="1.000000" stroke-width="1.500000" stroke-linejoin="round" stroke-linecap="round"/>
	<path id="Vector" d="M10.5 22C9.67 22 9 21.33 9 20.5C9 19.67 9.67 19 10.5 19C11.33 19 12 19.67 12 20.5C12 21.33 11.32 22 10.5 22Z" stroke="#737373" stroke-opacity="1.000000" stroke-width="1.500000"/>
	<path id="Vector" d="M17.5 22C16.67 22 16 21.33 16 20.5C16 19.67 16.67 19 17.5 19C18.33 19 19 19.67 19 20.5C19 21.33 18.32 22 17.5 22Z" stroke="#737373" stroke-opacity="1.000000" stroke-width="1.500000"/>
</svg>
