<svg width="40.000000" height="40.000000" viewBox="0 0 40 40" fill="none" xmlns="http://www.w3.org/2000/svg" xmlns:xlink="http://www.w3.org/1999/xlink">
	<desc>
			Created with Pixso.
	</desc>
	<defs/>
	<path id="Vector" d="M34.62 30C35.87 30 36.86 29.21 37.75 28.11C39.58 25.86 36.58 24.06 35.44 23.18C34.28 22.29 32.98 21.78 31.66 21.66M30 18.33C32.3 18.33 34.16 16.46 34.16 14.16C34.16 11.86 32.3 10 30 10" stroke="#737373" stroke-opacity="1.000000" stroke-width="1.500000" stroke-linecap="round"/>
	<path id="Vector" d="M5.37 30C4.12 30 3.13 29.21 2.24 28.11C0.41 25.86 3.41 24.06 4.55 23.18C5.71 22.29 7.01 21.78 8.33 21.66M9.16 18.33C6.86 18.33 5 16.46 5 14.16C5 11.86 6.86 10 9.16 10" stroke="#737373" stroke-opacity="1.000000" stroke-width="1.500000" stroke-linecap="round"/>
	<path id="Vector" d="M10.02 31.07C11.35 32.39 12.83 33.33 14.69 33.33L25.3 33.33C27.16 33.33 28.64 32.39 29.97 31.07C32.69 28.38 28.23 26.23 26.52 25.18C22.53 22.71 17.46 22.71 13.47 25.18C11.77 26.23 7.3 28.38 10.02 31.07Z" stroke="#737373" stroke-opacity="1.000000" stroke-width="1.500000" stroke-linejoin="round"/>
	<path id="Vector" d="M20 18.33C16.77 18.33 14.16 15.72 14.16 12.49C14.16 9.27 16.77 6.66 20 6.66C23.22 6.66 25.83 9.27 25.83 12.49C25.83 15.72 23.22 18.33 20 18.33Z" stroke="#737373" stroke-opacity="1.000000" stroke-width="1.500000"/>
</svg>
