<svg width="40.000000" height="40.000000" viewBox="0 0 40 40" fill="none" xmlns="http://www.w3.org/2000/svg" xmlns:xlink="http://www.w3.org/1999/xlink">
	<desc>
			Created with Pixso.
	</desc>
	<defs/>
	<path id="Vector" d="M31.02 33.33L31.84 33.33C33.76 33.33 35.28 32.46 36.65 31.23C40.13 28.13 31.95 25 29.16 25M25.83 8.44C26.21 8.37 26.6 8.33 27 8.33C30.04 8.33 32.5 10.57 32.5 13.33C32.5 16.09 30.04 18.33 27 18.33C26.6 18.33 26.21 18.29 25.83 18.21" stroke="#737373" stroke-opacity="1.000000" stroke-width="1.500000" stroke-linecap="round"/>
	<path id="Vector" d="M3.48 32.74C5.02 34.06 6.72 35 8.87 35L21.12 35C23.27 35 24.97 34.06 26.51 32.74C29.64 30.05 24.49 27.9 22.53 26.85C17.92 24.38 12.07 24.38 7.46 26.85C5.5 27.9 0.35 30.05 3.48 32.74Z" stroke="#737373" stroke-opacity="1.000000" stroke-width="1.500000"/>
	<path id="Vector" d="M14.99 19.16C11.31 19.16 8.33 16.18 8.33 12.5C8.33 8.81 11.31 5.83 14.99 5.83C18.68 5.83 21.66 8.81 21.66 12.5C21.66 16.18 18.68 19.16 14.99 19.16Z" stroke="#737373" stroke-opacity="1.000000" stroke-width="1.500000"/>
</svg>
